PathFileType	4	(X/Y/Z)	Patient4_TMGait_0pt4_03_right_40.trc.trc
DataRate	CameraRate	NumFrames	NumMarkers	Units	OrigDataRate	OrigDataStartFrame	OrigNumFrames
77.777777777778	77.777777777778	6	33	mm	77.777777777778	1	       141
Frame#	Time	Sacral			L.Shoulder			Chest			R.Shoulder			Neck			R.ASIS			L.ASIS			R.Thigh.Superior			R.Thigh.Lateral			R.Thigh.Inferior			R.Patella			L.Thigh.Superior			L.Thigh.Lateral			L.Thigh.Inferior			L.Patella			L.Shank.Superior			L.Shank.Lateral			L.Shank.Inferior			R.Shank.Superior			R.Shank.Lateral			R.Shank.Inferior			R.Heel			R.Midfoot.Superior			R.Midfoot.Lateral			R.Toe			L.Heel			L.Midfoot.Lateral			L.Midfoot.Superior			L.Toe			L.Elbow			L.Wrist			R.Elbow			R.Wrist			
		X1	Y1	Z1	X2	Y2	Z2	X3	Y3	Z3	X4	Y4	Z4	X5	Y5	Z5	X6	Y6	Z6	X7	Y7	Z7	X8	Y8	Z8	X9	Y9	Z9	X10	Y10	Z10	X11	Y11	Z11	X12	Y12	Z12	X13	Y13	Z13	X14	Y14	Z14	X15	Y15	Z15	X16	Y16	Z16	X17	Y17	Z17	X18	Y18	Z18	X19	Y19	Z19	X20	Y20	Z20	X21	Y21	Z21	X22	Y22	Z22	X23	Y23	Z23	X24	Y24	Z24	X25	Y25	Z25	X26	Y26	Z26	X27	Y27	Z27	X28	Y28	Z28	X29	Y29	Z29	X30	Y30	Z30	X31	Y31	Z31	X32	Y32	Z32	X33	Y33	Z33	

1	52.390000000000	864.589572262032	997.813663384428	467.196870729195	1020.194629506661	1431.883439376929	274.113836368613	1131.295362118904	1370.463641028767	432.810490367403	1050.432230737891	1439.486228171395	610.361570284293	1008.195170225349	1495.873826867615	430.705671674940	1102.356760138277	944.348972315046	573.582967164325	1076.142081546461	969.192948234155	300.833823350599	1188.794835335371	774.022827760297	538.923750689641	1153.249352397781	651.097631139086	614.452587724143	1241.721909878752	614.088661209415	533.165630798861	1261.246272631391	500.142356072817	554.370541004850	1132.373560851533	755.050454469721	322.276789530966	1044.260267676957	637.741883239112	264.825620761521	1131.753432293629	561.702980244209	324.212309725472	1132.603047041485	492.856124577815	333.619205497430	1107.786939507770	419.755440034802	325.460224945749	1018.779737429058	303.579513151137	277.999921232994	1074.007760506781	194.007238869037	348.174345777710	1182.871721137744	426.635583759495	566.614213805624	1063.834742949276	395.424452294681	636.538568946648	1038.649731271439	287.443962987516	590.016501717405	835.758639585843	248.405765249340	581.725324491972	996.795993616656	162.927638610947	603.406867959656	890.588220788507	173.662426806126	644.109892726148	1043.811159177528	38.016279325563	610.664741161222	949.930065785291	38.095247986073	396.950672571496	1017.465458844945	35.228465688023	310.765905458368	1101.459179863279	97.380619228236	333.491530637545	1227.779214011753	48.953731498084	294.678800525493	1037.666709705201	1081.160705612637	147.074788176121	1203.946408097487	878.178855217934	133.369597347022	1029.220381586298	1089.915599249603	728.682508694132	1122.381384663109	844.755329727237	713.114307069199	
2	52.402857142857	864.177777383825	998.249488174900	465.670387654651	1022.017867190769	1432.992256181643	274.255018343058	1131.530127334264	1370.843081173116	433.733320858708	1049.104061363967	1439.372871252580	610.718126751034	1008.712140804280	1496.450048787920	431.073965973402	1101.201527300090	945.347580112808	573.421312092897	1077.408208077711	969.978972143233	300.205777590470	1189.283354563209	776.989551468923	538.693289491556	1156.019959595720	654.323972213131	615.192125365274	1244.551601270998	618.108669476132	533.625662457551	1266.347711143307	504.885686777659	555.390738955519	1131.251030978986	754.502690023158	322.781615575396	1042.388337244251	637.751032742397	264.753989344263	1128.950429070959	561.070533774005	324.501255958901	1129.170117973288	492.258283634055	334.059271318300	1104.104181586559	419.318059115854	325.746436219083	1014.687988710240	303.604625819452	278.074316710204	1069.160642640893	193.750611388317	348.326911733361	1189.380162505461	429.839958466710	567.640334978248	1071.290999000772	395.575797573117	637.596928678889	1048.801556227489	287.021432944606	591.041811747595	847.000690331374	242.472183211683	582.605538775961	1010.256313372110	161.765358297547	604.843211478395	903.749970110022	169.562424385258	645.351968743674	1060.852933046283	38.355367169122	612.672421428800	944.369595288004	38.086125056721	396.937841783208	1012.005805758677	35.247305552830	310.740216389945	1096.048182922775	97.297887462003	333.558437163077	1222.360721075109	48.810587166286	294.658053292601	1041.598738514677	1083.458131574144	144.922985338443	1216.773641872056	889.256453540804	131.699277955544	1018.253665963077	1090.795759292636	727.591623369446	1099.025192152835	842.153902506696	715.035099660992	
3	52.415714285714	863.766739449316	998.693156995273	464.164242796184	1023.864944467842	1434.084795981052	274.418079622011	1131.784583903218	1371.206417030557	434.673805581568	1047.804700495110	1439.268747114300	611.086220143303	1009.246600237344	1497.015415411827	431.459834853394	1100.046448010006	946.326312916419	573.287841608385	1078.547313065147	970.654932106495	299.653013279945	1189.726600154542	779.882666817171	538.506526530830	1158.662621987926	657.463116149730	615.967637443097	1247.234038383391	621.993470449339	534.121984961591	1271.200723703705	509.521414908783	556.463099545072	1130.135381796445	753.957933933997	323.323759739080	1040.520452456770	637.766617284697	264.695612287851	1126.142309638907	560.448024353038	324.801339676092	1125.728911824804	491.668584613154	334.504464385252	1100.421984298499	418.888835297335	326.034220241424	1010.608449381172	303.627543424161	278.151653873698	1064.340533589520	193.497788831419	348.477245570101	1195.726173114955	432.923821695472	568.729490245805	1078.601747179209	395.499641204154	638.675806525392	1058.970915657553	286.346445287516	592.124772969593	858.340013074944	236.016147621039	583.455664808953	1023.879867180066	160.361527949816	606.373603046969	917.069447845409	165.099485078044	646.653301035100	1078.217750198519	38.584504699441	614.913555651454	938.858621817308	38.077089795059	396.924325477650	1006.589703983530	35.263556231357	310.716093155100	1090.680823664521	97.216538079119	333.625571835662	1216.986304207585	48.668713160581	294.638510997087	1045.450639994133	1085.725645700699	142.836318310134	1229.365007203886	900.338614455155	130.109543467875	1007.403416385595	1091.759365675976	726.589410025980	1076.058885999812	839.826600246036	716.922005692130	
4	52.428571428571	863.361689937344	999.155723521080	462.702394368182	1025.768106262007	1435.139328971796	274.633538158389	1132.087016129312	1371.533729277093	435.658828992109	1046.575194940246	1439.181757815911	611.484919614711	1009.825046887564	1497.556522639445	431.886716104368	1098.892298095437	947.256647768812	573.224765046644	1079.486121087487	971.147496042450	299.246634986776	1190.042185150244	782.582761325898	538.426021920005	1160.977774390930	660.391768906994	616.820458684533	1249.551776563190	625.562932262088	534.702973385119	1275.504840619626	513.916629123839	557.628367971327	1129.020826154875	753.415281523635	323.944533501189	1038.654263770060	637.795603136390	264.663824026731	1123.313217869414	559.843907843981	325.131026539159	1122.261599832048	491.096765331135	334.962834116641	1096.729776373202	418.476400660261	326.328505242149	1006.541453822666	303.648234403445	278.235553056436	1059.561006344194	193.253668087103	348.624510394029	1201.711314051774	435.764839066172	569.931817289996	1085.662198688752	394.964408440721	639.813065165759	1069.212150966913	285.212043844589	593.312954782797	870.009269943996	228.569462386226	584.278350067085	1037.889813537880	158.555479486016	608.063826047503	930.822436713147	159.976559228034	648.067720059439	1096.260503040881	38.725664097584	617.541129460653	933.429509010263	38.069452368487	396.909635413425	1001.244851219813	35.276004800104	310.694477420650	1085.384920875735	97.138847302405	333.692312386425	1211.683142392077	48.529706664232	294.621309228088	1049.164736733364	1087.929875930364	140.884788850078	1241.486982773293	911.407052445713	128.692006297261	996.804054731485	1092.883773612589	725.753843981971	1053.886580995445	838.020598140812	718.740873575457	
5	52.441428571429	862.968586226146	999.647580527085	461.304180978588	1027.759556249883	1436.136701570096	274.930596529118	1132.464199234936	1371.808239839703	436.715539554380	1045.450694460949	1439.118825607327	611.933650284925	1010.473318943426	1498.062483118938	432.376254128897	1097.737194933233	948.112264316442	573.272710762335	1080.169730193411	971.398867558272	299.050811314568	1190.148424151524	784.977077912587	538.511630446796	1162.774325896916	662.994924200103	617.784428282641	1251.301232944737	628.653423426910	535.413129976556	1278.999047857685	517.956985965331	558.916993686894	1127.896906699522	752.871256125831	324.679544613147	1036.781796347840	637.844822445078	264.670477802401	1120.439162785508	559.264471866731	325.509463636333	1118.742645839394	490.552195881669	335.442635478283	1093.005163324311	418.087094605315	326.635731372196	1002.473639909253	303.667480418692	278.329022594227	1054.818039608875	193.022240471704	348.769278825624	1207.167581750045	438.264487645660	571.286846731247	1092.416332881411	393.773672589830	641.052158174797	1079.610048301877	283.460803008115	594.649624872127	882.291663520600	219.750349683211	585.100757442721	1052.527654695802	156.241472363703	609.964283060468	945.320307904437	153.961744180929	649.647703008000	1115.323817092722	38.851921478937	620.654846581412	928.090734869243	38.063530074633	396.893541413165	995.976736915944	35.283575783867	310.675834994363	1080.165690708420	97.066420369275	333.758077511526	1206.456153613531	48.395360441702	294.607389475502	1052.711213035938	1090.044232912020	139.124860431490	1252.969757419928	922.456534070729	127.523642465412	986.553422437270	1094.234527820735	725.143178269693	1032.802273786358	836.920170293030	720.469973605291	
6	52.454285714286	862.595033526520	1000.176407839393	459.985795006122	1029.865103524001	1437.060137601584	275.334385502598	1132.938587017962	1372.017132445400	437.867475209445	1044.460004062266	1439.084876705090	612.450290040089	1011.213401835758	1498.524765988414	432.945916880464	1096.579326546614	948.869522247530	573.467406761779	1080.576716920711	971.379742509647	299.113851925751	1189.970183235082	786.963864380902	538.815372259441	1163.881690156232	665.171074721686	618.881048061869	1252.306083672469	631.126883652229	536.287959182719	1281.479009411079	521.549940177138	560.342490709619	1126.750486869123	752.320614653017	325.554201546761	1034.893126153564	637.919957700853	264.725340573267	1117.495272524833	558.713822691013	325.954541855056	1115.147531173310	490.043754412308	335.951017319838	1089.222605247775	417.724888892701	326.962905123105	998.385671670421	303.686880844783	278.434377068314	1050.097858445673	192.806484992013	348.913282860466	1211.962408601118	440.353988548740	572.814749142401	1098.852744732601	391.789987042630	642.435682854110	1090.251142294165	281.009812488493	596.164120495606	895.472291319614	209.328879050744	585.969155662699	1068.000354092227	153.391366617349	612.097706059412	960.852801404480	146.931746629495	651.432466734032	1135.663219184305	39.088127281094	624.277225972883	922.834588116704	38.058964208149	396.875980145372	990.776248757586	35.285719476635	310.660063744076	1075.013296315478	97.000160474767	333.822297777051	1201.295451686811	48.267627510121	294.597454164380	1056.086601640115	1092.047783204443	137.597227371781	1263.705163967158	933.472395971152	126.662246807997	976.723455306409	1095.854682988808	724.790419372353	1012.999104698268	836.626831395932	722.098227835725	
